<svg width="24" height="24" viewBox="0 0 24 24" fill="none" xmlns="http://www.w3.org/2000/svg">
<g clip-path="url(#clip0_304_23705)">
<path d="M18.41 10.41C18 10.82 17.75 11.38 17.75 12C17.75 13.24 18.76 14.25 20 14.25H21.25V18.25C21.25 18.8 20.8 19.25 20.25 19.25H3.75C3.2 19.25 2.75 18.8 2.75 18.25V14.25H4C4.62 14.25 5.18 14 5.59 13.59C6 13.18 6.25 12.62 6.25 12C6.25 10.76 5.24 9.75 4 9.75H2.75V5.75C2.75 5.2 3.2 4.75 3.75 4.75H20.25C20.8 4.75 21.25 5.2 21.25 5.75V9.75H20C19.38 9.75 18.82 10 18.41 10.41Z" stroke="#121331" stroke-width="1.5" stroke-linecap="round" stroke-linejoin="round"/>
<line x1="10.75" y1="4.75" x2="10.75" y2="7.25" stroke="#121331" stroke-width="1.5" stroke-linecap="round"/>
<line x1="10.75" y1="10.75" x2="10.75" y2="13.25" stroke="#121331" stroke-width="1.5" stroke-linecap="round"/>
<line x1="10.75" y1="16.75" x2="10.75" y2="19.25" stroke="#121331" stroke-width="1.5" stroke-linecap="round"/>
</g>
<defs>
<clipPath id="clip0_304_23705">
<rect width="24" height="24" fill="white"/>
</clipPath>
</defs>
</svg>
